HIERARCHY
ROOT Hips
{
  OFFSET 51.5423 53.584 -1.9029
  CHANNELS 6 Xposition Yposition Zposition Zrotation Xrotation Yrotation
  JOINT spine
  {
    OFFSET 0 6.84637 0.3937
    CHANNELS 3 Zrotation Xrotation Yrotation
    JOINT spine1
    {
      OFFSET 0 9.49621 0
      CHANNELS 3 Zrotation Xrotation Yrotation
      JOINT spine2
      {
        OFFSET 0 9.09909 0
        CHANNELS 3 Zrotation Xrotation Yrotation
        JOINT Neck
        {
          OFFSET 0 23.3612 1.11378
          CHANNELS 3 Zrotation Xrotation Yrotation
          JOINT Head
          {
            OFFSET 0 7.05802 0
            CHANNELS 3 Zrotation Xrotation Yrotation
            End Site
            {
              OFFSET 0 17.0844 -5.63419
            }
          }
        }
        JOINT RightShoulder
        {
          OFFSET -3.83136 9.82631 -0.533491
          CHANNELS 3 Zrotation Xrotation Yrotation
          JOINT RightArm
          {
            OFFSET 0 12.8881 0
            CHANNELS 3 Zrotation Xrotation Yrotation
            JOINT RightArmRoll
            {
              OFFSET 0 6.50617 0
              CHANNELS 3 Zrotation Xrotation Yrotation
              JOINT RightForeArm
              {
                OFFSET 0 18.9501 0
                CHANNELS 3 Zrotation Xrotation Yrotation
                JOINT RightForeArmRoll
                {
                  OFFSET 0 7.30093 0
                  CHANNELS 3 Zrotation Xrotation Yrotation
                  JOINT RightHand
                  {
                    OFFSET 0 14.6514 0
                    CHANNELS 3 Zrotation Xrotation Yrotation
                    End Site
                    {
                      OFFSET 0 0 0
                    }
                  }
                }
              }
            }
          }
        }
        JOINT LeftShoulder
        {
          OFFSET 3.83136 9.82631 -0.533491
          CHANNELS 3 Zrotation Xrotation Yrotation
          JOINT LeftArm
          {
            OFFSET 0 12.8881 0
            CHANNELS 3 Zrotation Xrotation Yrotation
            JOINT LeftArmRoll
            {
              OFFSET 0 6.50617 0
              CHANNELS 3 Zrotation Xrotation Yrotation
              JOINT LeftForeArm
              {
                OFFSET 0 18.9501 0
                CHANNELS 3 Zrotation Xrotation Yrotation
                JOINT LeftForeArmRoll
                {
                  OFFSET 0 7.30093 0
                  CHANNELS 3 Zrotation Xrotation Yrotation
                  JOINT LeftHand
                  {
                    OFFSET 0 14.6514 0
                    CHANNELS 3 Zrotation Xrotation Yrotation
                    End Site
                    {
                      OFFSET 0 0 0
                    }
                  }
                }
              }
            }
          }
        }
      }
    }
  }
  JOINT RightUpLeg
  {
    OFFSET -6.06837 -1.11278 -0.933477
    CHANNELS 3 Zrotation Xrotation Yrotation
    JOINT RightUpLegRoll
    {
      OFFSET 0 17.1796 0
      CHANNELS 3 Zrotation Xrotation Yrotation
      JOINT RightLeg
      {
        OFFSET 0 -21.2743 0
        CHANNELS 3 Zrotation Xrotation Yrotation
        JOINT RightLegRoll
        {
          OFFSET 0 21.3439 0
          CHANNELS 3 Zrotation Xrotation Yrotation
          JOINT RightFoot
          {
            OFFSET 0 17.7652 0
            CHANNELS 3 Zrotation Xrotation Yrotation
            JOINT RightToeBase
            {
              OFFSET 0 14.8508 0
              CHANNELS 3 Zrotation Xrotation Yrotation
              End Site
              {
                OFFSET 0.0062947 7.19214 -0.829005
              }
            }
          }
        }
      }
    }
  }
  JOINT LeftUpLeg
  {
    OFFSET 6.06837 -1.11278 -0.933477
    CHANNELS 3 Zrotation Xrotation Yrotation
    JOINT LeftUpLegRoll
    {
      OFFSET 0 17.1797 0
      CHANNELS 3 Zrotation Xrotation Yrotation
      JOINT LeftLeg
      {
        OFFSET 0 21.2742 0
        CHANNELS 3 Zrotation Xrotation Yrotation
        JOINT LeftLegRoll
        {
          OFFSET 0 21.5412 0
          CHANNELS 3 Zrotation Xrotation Yrotation
          JOINT LeftFoot
          {
            OFFSET 0 17.5679 0
            CHANNELS 3 Zrotation Xrotation Yrotation
            JOINT LeftToeBase
            {
              OFFSET 0 14.8508 0
              CHANNELS 3 Zrotation Xrotation Yrotation
              End Site
              {
                OFFSET -0.0282102 7.19214 -0.829005
              }
            }
          }
        }
      }
    }
  }
}
MOTION
Frames: 12
Frame Time: 0.00208333
51.3646 55.0873 -0.179017 3.47231 15.4458 -6.4914 -0.615411 2.03601 0.735366 -1.27368 8.066 1.57651 -1.29631 9.71058 1.60125 -18.3543 9.40661 1.60597 15.2936 17.7063 -4.45828 37.2232 -6.08821 -2.47783 137.799 46.6436 -70.2105 1.3918e-006 4.07791e-007 -4.43267e-006 30.404 27.4605 -1.54801 1.46028e-005 7.02981e-006 -3.0067 8.0301 -4.9514 0.697719 -53.8175 -8.09267 4.86766 -129.711 61.1393 60.8619 -1.72063e-006 2.28825e-007 3.51245e-006 -42.994 21.0473 4.00325 2.17448e-006 8.25562e-006 2.99997 -8.03035 -4.95137 -0.697722 38.7892 79.8431 142.978 180 7.01559e-015 178.978 173.642 79.9876 -176.231 -2.95271e-007 -4.4808e-006 1.87741 -17.8188 61.6401 15.0338 8.13649 25.2327 -3.48773 -66.1018 75.2345 -119.927 -1.07169e-005 -4.64205e-006 -0.521022 7.35891 -89.1608 12.9244 5.5471e-006 -2.11285e-006 -1.90414 22.9704 71.2268 -22.803 -8.13649 25.2327 3.48774 
51.3556 55.0693 -0.207053 3.47421 15.3397 -6.48694 -0.619101 2.03172 0.738587 -1.2812 8.05732 1.58352 -1.30393 9.70189 1.6084 -18.3539 9.40693 1.60277 15.2859 17.6944 -4.45932 37.2787 -6.09951 -2.49204 137.895 46.7177 -70.055 1.3918e-006 4.07791e-007 -4.43267e-006 30.5139 27.1529 -1.528 1.46028e-005 7.02981e-006 -3.0067 8.0301 -4.9514 0.697719 -53.8471 -8.07827 4.85856 -129.799 61.1642 60.7802 -1.72063e-006 2.28825e-007 3.51245e-006 -43.0251 20.8552 3.9428 2.17448e-006 8.25562e-006 2.99997 -8.03035 -4.95137 -0.697722 39.0187 79.9078 142.684 180 7.0156e-015 178.983 173.824 79.9755 -176.379 -2.95271e-007 -4.4808e-006 1.87237 -17.7349 61.5995 15.0209 8.13649 25.2327 -3.48773 -66.418 75.2533 -119.612 -1.07169e-005 -4.64205e-006 -0.521966 6.86245 -89.1405 12.4246 5.5471e-006 -2.11285e-006 -1.90241 22.9218 71.1827 -22.7509 -8.13649 25.2327 3.48774 
51.3425 55.0575 -0.22484 3.47623 15.2367 -6.48122 -0.622853 2.02669 0.741272 -1.2888 8.04718 1.58946 -1.31162 9.69174 1.61447 -18.3521 9.40893 1.60001 15.2774 17.6805 -4.45945 37.3398 -6.11085 -2.50663 137.987 46.7926 -69.8944 1.3918e-006 4.07791e-007 -4.43267e-006 30.6169 26.8417 -1.50492 1.46028e-005 7.02981e-006 -3.0067 8.0301 -4.9514 0.697719 -53.8762 -8.06306 4.8489 -129.881 61.1882 60.6981 -1.72063e-006 2.28825e-007 3.51245e-006 -43.059 20.6651 3.88266 2.17448e-006 8.25562e-006 2.99997 -8.03035 -4.95137 -0.697722 39.2381 79.9678 142.389 180 7.01562e-015 178.988 174.028 79.9662 -176.545 -2.95271e-007 -4.4808e-006 1.86636 -17.6372 61.5594 15.0103 8.13649 25.2327 -3.48773 -66.7165 75.2721 -119.314 -1.07169e-005 -4.64205e-006 -0.522932 6.35376 -89.1206 11.9124 5.5471e-006 -2.11285e-006 -1.90049 22.8717 71.1382 -22.6984 -8.13649 25.2327 3.48774 
51.3268 55.0449 -0.256569 3.47847 15.1369 -6.47434 -0.626678 2.02098 0.743413 -1.29651 8.03566 1.59431 -1.31941 9.68022 1.61946 -18.3493 9.41224 1.59779 15.2684 17.6649 -4.45866 37.4058 -6.12201 -2.52135 138.077 46.8682 -69.7296 1.3918e-006 4.07791e-007 -4.43267e-006 30.7136 26.5276 -1.4791 1.46028e-005 7.02981e-006 -3.0067 8.0301 -4.9514 0.697719 -53.9052 -8.04731 4.83888 -129.957 61.2117 60.6154 -1.72063e-006 2.28825e-007 3.51245e-006 -43.0951 20.4768 3.82272 2.17448e-006 8.25562e-006 2.99997 -8.03035 -4.95137 -0.697722 39.4478 80.0233 142.096 180 7.01563e-015 178.995 174.251 79.9594 -176.727 -2.95271e-007 -4.4808e-006 1.85953 -17.5279 61.5199 15.0017 8.13649 25.2327 -3.48773 -66.9982 75.2909 -119.03 -1.07169e-005 -4.64205e-006 -0.523923 5.83774 -89.101 11.3926 5.5471e-006 -2.11285e-006 -1.89839 22.8205 71.0934 -22.6457 -8.13649 25.2327 3.48774 
51.3199 55.033 -0.285277 3.481 15.04 -6.46638 -0.630585 2.0146 0.745 -1.30435 8.02281 1.59805 -1.32731 9.66736 1.62334 -18.3459 9.41652 1.59622 15.2592 17.6476 -4.45695 37.4755 -6.13279 -2.53594 138.166 46.9443 -69.5612 1.3918e-006 4.07791e-007 -4.43267e-006 30.8049 26.211 -1.45088 1.46028e-005 7.02981e-006 -3.0067 8.0301 -4.9514 0.697719 -53.9343 -8.03131 4.82871 -130.027 61.2349 60.5319 -1.72063e-006 2.28825e-007 3.51245e-006 -43.1333 20.29 3.76284 2.17448e-006 8.25562e-006 2.99997 -8.03035 -4.95137 -0.697722 39.6479 80.0744 141.805 180 7.01564e-015 179.002 174.489 79.9549 -176.92 -2.95271e-007 -4.4808e-006 1.85205 -17.4095 61.4811 14.9949 8.13649 25.2327 -3.48773 -67.2638 75.3097 -118.761 -1.07169e-005 -4.64205e-006 -0.524943 5.31867 -89.082 10.8696 5.5471e-006 -2.11285e-006 -1.89614 22.7685 71.0484 -22.593 -8.13649 25.2327 3.48774 
51.3112 55.0194 -0.312745 3.48391 14.9461 -6.45741 -0.634584 2.00758 0.746025 -1.31235 8.0087 1.60068 -1.33535 9.65325 1.6261 -18.3422 9.4214 1.59541 15.25 17.6291 -4.4543 37.5482 -6.14297 -2.55016 138.252 47.0207 -69.39 1.3918e-006 4.07791e-007 -4.43267e-006 30.8912 25.8928 -1.42056 1.46028e-005 7.02981e-006 -3.0067 8.0301 -4.9514 0.697719 -53.9639 -8.01533 4.81859 -130.092 61.2579 60.4475 -1.72063e-006 2.28825e-007 3.51245e-006 -43.1731 20.1044 3.70289 2.17448e-006 8.25562e-006 2.99997 -8.03035 -4.95137 -0.697722 39.8389 80.1216 141.517 180 7.01566e-015 179.01 174.738 79.9525 -177.123 -2.95272e-007 -4.4808e-006 1.84407 -17.2842 61.4428 14.9895 8.13649 25.2327 -3.48773 -67.5141 75.3284 -118.506 -1.07169e-005 -4.64205e-006 -0.525996 4.80024 -89.0637 10.3471 5.5471e-006 -2.11285e-006 -1.89377 22.7161 71.0036 -22.5405 -8.13649 25.2327 3.48774 
51.3004 55.0064 -0.337664 3.48728 14.8549 -6.44754 -0.638686 1.99996 0.746476 -1.32051 7.9934 1.60216 -1.34354 9.63794 1.62772 -18.3387 9.42653 1.59546 15.241 17.6094 -4.4507 37.6228 -6.15233 -2.56374 138.339 47.0972 -69.2166 1.3918e-006 4.07791e-007 -4.43267e-006 30.9732 25.5733 -1.38848 1.46028e-005 7.02981e-006 -3.00669 8.0301 -4.9514 0.697719 -53.9943 -7.99967 4.80871 -130.152 61.2812 60.362 -1.72063e-006 2.28825e-007 3.51245e-006 -43.2142 19.9196 3.64276 2.17448e-006 8.25562e-006 2.99997 -8.03035 -4.95137 -0.697722 40.021 80.1648 141.234 180 7.01568e-015 179.018 174.995 79.9519 -177.331 -2.95272e-007 -4.4808e-006 1.83576 -17.1543 61.4051 14.9851 8.13649 25.2327 -3.48773 -67.7501 75.347 -118.265 -1.07169e-005 -4.64205e-006 -0.527085 4.28552 -89.0463 9.82832 5.5471e-006 -2.11285e-006 -1.89129 22.6636 70.9589 -22.4885 -8.13649 25.2327 3.48774 
51.2898 54.9879 -0.366266 3.49119 14.7664 -6.43684 -0.642901 1.99178 0.746347 -1.32886 7.97695 1.60249 -1.35191 9.62149 1.62819 -18.3358 9.43154 1.59647 15.2327 17.5888 -4.44615 37.6983 -6.16067 -2.57643 138.424 47.1737 -69.0419 1.3918e-006 4.07791e-007 -4.43267e-006 31.0516 25.2534 -1.35494 1.46028e-005 7.02981e-006 -3.00669 8.0301 -4.9514 0.697719 -54.0258 -7.98461 4.79928 -130.206 61.3049 60.2753 -1.72063e-006 2.28825e-007 3.51245e-006 -43.2563 19.7354 3.58233 2.17448e-006 8.25562e-006 2.99997 -8.03035 -4.95137 -0.697722 40.1945 80.2044 140.958 180 7.0157e-015 179.027 175.255 79.953 -177.542 -2.95271e-007 -4.4808e-006 1.82728 -17.0222 61.3681 14.9814 8.13649 25.2327 -3.48773 -67.9725 75.3655 -118.037 -1.07169e-005 -4.64205e-006 -0.528214 3.77698 -89.0298 9.31573 5.5471e-006 -2.11285e-006 -1.88875 22.6114 70.9145 -22.4371 -8.13649 25.2327 3.48774 
51.2726 54.9783 -0.388419 3.49573 14.6805 -6.42541 -0.647239 1.98305 0.745627 -1.33742 7.95943 1.60165 -1.36048 9.60397 1.62748 -18.3338 9.43608 1.59857 15.2251 17.5674 -4.44064 37.7738 -6.16777 -2.58799 138.511 47.2501 -68.8664 1.3918e-006 4.07791e-007 -4.43267e-006 31.127 24.9334 -1.32025 1.46028e-005 7.02981e-006 -3.00669 8.0301 -4.9514 0.697719 -54.0589 -7.97042 4.7905 -130.255 61.3294 60.1872 -1.72063e-006 2.28825e-007 3.51245e-006 -43.2991 19.5515 3.52146 2.17448e-006 8.25562e-006 2.99997 -8.03035 -4.95137 -0.697722 40.3598 80.2407 140.69 180 7.01572e-015 179.035 175.516 79.9555 -177.753 -2.95271e-007 -4.4808e-006 1.81877 -16.8903 61.3317 14.9782 8.13649 25.2327 -3.48773 -68.1822 75.3837 -117.822 -1.07169e-005 -4.64205e-006 -0.529386 3.27659 -89.0145 8.81138 5.5471e-006 -2.11285e-006 -1.88615 22.5597 70.8707 -22.3865 -8.13649 25.2327 3.48774 
51.2624 54.9614 -0.41655 3.50097 14.597 -6.41331 -0.65171 1.97381 0.744307 -1.34621 7.9409 1.59962 -1.36926 9.58544 1.62559 -18.3332 9.43979 1.60184 15.2185 17.5456 -4.43415 37.8484 -6.17341 -2.59815 138.598 47.3261 -68.6911 1.3918e-006 4.07791e-007 -4.43267e-006 31.1998 24.6142 -1.28472 1.46028e-005 7.02981e-006 -3.00669 8.0301 -4.9514 0.697719 -54.0938 -7.95739 4.78256 -130.299 61.3547 60.0975 -1.72063e-006 2.28825e-007 3.51245e-006 -43.3421 19.3676 3.46004 2.17448e-006 8.25562e-006 2.99997 -8.03035 -4.95137 -0.697722 40.5171 80.2738 140.431 180 7.01573e-015 179.044 175.772 79.9593 -177.96 -2.95271e-007 -4.4808e-006 1.81041 -16.7608 61.296 14.975 8.13649 25.2327 -3.48773 -68.38 75.4016 -117.619 -1.07169e-005 -4.64205e-006 -0.530605 2.78625 -89.0004 8.3172 5.5471e-006 -2.11285e-006 -1.88353 22.509 70.8276 -22.3369 -8.13649 25.2327 3.48774 
51.2575 54.9446 -0.445026 3.507 14.5158 -6.40065 -0.656324 1.9641 0.742378 -1.35525 7.92142 1.59638 -1.37828 9.56595 1.62249 -18.3342 9.44231 1.6064 15.2133 17.5234 -4.42669 37.9211 -6.17739 -2.60666 138.687 47.4017 -68.5166 1.3918e-006 4.07791e-007 -4.43267e-006 31.2709 24.2961 -1.24863 1.46028e-005 7.02981e-006 -3.00669 8.0301 -4.9514 0.697719 -54.1308 -7.9458 4.77568 -130.338 61.3813 60.0061 -1.72063e-006 2.28825e-007 3.51245e-006 -43.3851 19.1834 3.39795 2.17448e-006 8.25562e-006 2.99997 -8.03035 -4.95137 -0.697722 40.6668 80.304 140.183 180 7.01575e-015 179.052 176.02 79.9643 -178.161 -2.95271e-007 -4.4808e-006 1.80234 -16.6361 61.2609 14.9716 8.13649 25.2327 -3.48773 -68.5666 75.4191 -117.427 -1.07169e-005 -4.64205e-006 -0.531875 2.30716 -88.9877 7.83447 5.5471e-006 -2.11285e-006 -1.88092 22.4596 70.7853 -22.2885 -8.13649 25.2327 3.48774 
51.244 54.9105 -0.474026 3.51389 14.4369 -6.3875 -0.661092 1.95393 0.73983 -1.36456 7.90105 1.59192 -1.38755 9.54558 1.61817 -18.3375 9.44328 1.61236 15.2097 17.5012 -4.41824 37.9909 -6.1795 -2.61326 138.778 47.4767 -68.3437 1.3918e-006 4.07791e-007 -4.43267e-006 31.3407 23.98 -1.2123 1.46028e-005 7.02981e-006 -3.00669 8.0301 -4.9514 0.697719 -54.1703 -7.93594 4.77004 -130.373 61.4094 59.9127 -1.72063e-006 2.28825e-007 3.51245e-006 -43.4277 18.9986 3.33507 2.17448e-006 8.25562e-006 2.99997 -8.03035 -4.95137 -0.697722 40.8094 80.3315 139.947 180 7.01576e-015 179.06 176.256 79.9701 -178.352 -2.95271e-007 -4.4808e-006 1.79474 -16.5185 61.2265 14.9676 8.13649 25.2327 -3.48773 -68.7429 75.4362 -117.247 -1.07169e-005 -4.64205e-006 -0.533199 1.8405 -88.9766 7.36442 5.5471e-006 -2.11285e-006 -1.87833 22.4118 70.744 -22.2415 -8.13649 25.2327 3.48774 
